<?xml version="1.0" encoding="utf-8"?>
<!-- Generator: Adobe Illustrator 27.2.0, SVG Export Plug-In . SVG Version: 6.00 Build 0)  -->
<svg version="1.1" id="Layer_1" xmlns="http://www.w3.org/2000/svg" xmlns:xlink="http://www.w3.org/1999/xlink" x="0px" y="0px"
	 viewBox="0 0 1500 1500" style="enable-background:new 0 0 1500 1500;" xml:space="preserve">
<g>
	<path d="M380.15387,1129.07996c-16.72015,16.92944-16.72015,43.93481,0,60.64453
		c8.34961,8.36011,19.27316,12.65002,30.42688,12.65002c10.92355,0,21.84711-4.28992,30.21765-12.65002
		c16.69922-16.70972,16.69922-43.71509,0-60.64453C424.07825,1112.37024,397.08328,1112.37024,380.15387,1129.07996z"/>
	<path d="M1263.8313,987.72253c-17.99658-15.34949-45.07532-13.20453-60.41431,4.82355
		c-15.33899,18.01758-13.18359,45.07526,4.83398,60.42474l122.6283,104.49573c6.19421,5.30481,7.34521,11.95935,7.4917,15.4646
		c0.12549,3.49463-0.50232,10.22241-6.25696,15.97717l-144.22437,144.21387c-5.75476,5.77576-12.59766,6.48718-15.98779,6.26746
		c-3.49463-0.13599-10.14917-1.28699-15.38086-7.39746l-61.72876-72.44043l59.44788-59.44775
		c16.74109-16.73071,16.74109-43.87207,0-60.60278c-16.74109-16.74097-43.86169-16.74097-60.60266,0l-54.60864,54.60864
		L561.16669,633.31409c-24.14899-28.17737-63.46957-37.58374-97.70508-23.46893l-111.7048,45.99609L161.49454,465.54761
		l22.72601-98.48984l81.67551,81.70691c33.44028,33.39844,87.82785,33.40891,121.22629-0.01047l60.60266-60.61316
		c33.41937-33.41934,33.41937-87.79645,0-121.22626l-81.67551-81.68597l98.47937-22.72601l190.2832,190.2832l-45.99609,111.69434
		c-14.12531,34.28781-4.6875,73.56653,23.58398,97.80969l450.14642,383.57983c17.95483,15.31805,45.05444,13.18359,60.41443-4.82355
		c15.33899-18.01758,13.18359-45.06488-4.83398-60.4248L993.98615,757.79437l137.02179-137.02173l183.36047,183.03876
		c41.73633,43.25519,117.85193,5.72571,109.2146-53.5191l-41.55969-330.26996c0-0.01047,0-0.01047,0-0.01047
		c-3.0343-24.08621-14.16711-46.81223-31.36865-64.01367l-249.06531-248.6049
		c-42.4386-42.33398-110.84674-43.01408-152.49017-1.45438l-91.13422,90.95633
		c-19.96375,19.92188-30.95007,46.56111-30.95007,75.02092c0,29.2655,11.50952,56.87781,32.41492,77.75183l89.74127,89.58435
		L797.80042,590.6178l-109.71545-93.49237l45.99609-111.73618c13.20453-32.11148,5.85938-68.70117-18.66632-93.2059
		L525.15247,101.9106c-21.03098-21.06236-50.87192-29.68401-79.91769-22.9248l-98.47934,22.72601
		c-30.3432,7.01032-54.53406,29.95605-63.11386,59.88071c-8.57977,29.93513-0.2511,62.22447,21.78433,84.24945l81.69644,81.69643
		l-60.62363,60.61313l-81.67549-81.70688c-22.01451-22.00406-54.26199-30.38504-84.24945-21.77386
		c-29.92465,8.5798-52.88085,32.76019-59.89117,63.11383l-22.70508,98.47937c-6.69643,28.9725,1.84151,58.83441,22.89341,79.89679
		l190.2832,190.30408c24.5675,24.50476,61.12582,31.88129,93.24777,18.62445l111.62109-46.06934l93.47534,109.69849
		L461.4527,926.7641l-256.49414,132.79852c-63.38681,30.49548-77.69704,122.64197-26.49274,170.89502l161.11189,161.11182
		c48.61957,51.33447,140.3183,36.84607,170.92633-26.49268l132.68213-256.26917L756.78741,995.0415l334.56903,392.63574
		c38.49585,46.8822,115.11755,49.86487,157.13586,6.05811l144.22437-144.22437
		c43.79211-42.05127,40.83252-118.65137-6.15234-157.20911L1263.8313,987.72253z M912.72919,271.92664
		c0-3.91321,1.00446-9.58426,5.79663-14.36594l91.13416-90.95633c8.74658-8.57982,22.73358-7.18741,31.38959,1.46484
		L1290.073,416.63226c3.78589,3.77304,6.24475,8.84247,6.90564,14.08344l33.77515,268.328l-305.9104-305.37286l30.20581-30.2124
		c16.74109-16.74106,16.74109-43.87207,0-60.61313c-16.74109-16.72015-43.86157-16.73062-60.60266,0.01047l-30.25946,30.26602
		l-44.19641-44.11926C915.30316,284.3255,912.72919,278.26733,912.72919,271.92664z M1009.72278,499.90863l60.47717,60.46667
		L928.54559,702.0296l-65.30457-55.64838L1009.72278,499.90863z M434.37399,1325.66199
		c-4.35266,8.41235-11.73965,10.71423-15.75751,11.34204c-3.99695,0.62781-11.73969,0.63831-18.41519-6.02673l-161.13281-161.13281
		c-6.69643-6.68604-6.63365-14.40784-6.02678-18.41516c0.62294-4.01721,2.94823-11.43213,11.34207-15.75757l234.5424-121.43555
		l76.88339,76.88342L434.37399,1325.66199z M608.35559,1022.38702l-60.66547-60.65497l97.57166-97.57172l55.75696,65.43408
		L608.35559,1022.38702z"/>
</g>
</svg>
