<?xml version="1.0" encoding="utf-8" ?>
<svg xmlns="http://www.w3.org/2000/svg" xmlns:xlink="http://www.w3.org/1999/xlink" width="4000" height="4000">
	<path fill="#04050E" transform="scale(6.25 6.25)" d="M312.985 79.5309L315.298 79.484C361.754 78.5909 410.999 90.8205 450.469 115.991C503.435 149.769 545.201 213.582 556.592 274.577C558.488 284.732 560.221 295.108 560.368 305.469L560.392 323.733C560.258 449.17 454.796 558.798 328.203 561.077L313.505 561.069C307.173 561.051 300.978 560.437 294.688 559.691L271.406 556.184C212.56 544.452 169.586 517.029 132.507 470.786C106.814 438.743 91.029 403.339 83.5456 363.281L80.8083 343.397C80.4514 340.083 79.9781 336.997 79.9082 333.632L79.826 314.916C79.8424 307.516 80.2066 302.994 80.9423 295.921C93.3187 176.931 192.542 81.9728 312.985 79.5309ZM314.957 135.174C213.801 137.02 129.769 229.899 135.881 330.946L136.665 342.301C139.058 362.974 153.942 409.046 169.972 424.418L170.783 425.161C176.824 420.364 182.187 414.671 187.642 409.225L209.219 387.569L395.872 201.759C406.243 191.401 417.083 181.185 426.306 169.767C400.478 148.087 347.863 132.518 315.5 135.106L314.957 135.174ZM469.177 215.156C460.391 222.451 452.525 231.105 444.553 239.274L215.776 467.622C215.253 468.135 214.42 468.738 214.214 469.429C228.091 479.795 244.361 488.256 260.542 494.389C274.822 499.759 289.407 502.574 304.531 504.18C420.141 516.458 522.061 406.227 502.714 292.312C498.888 269.783 485.78 232.535 469.83 215.031L469.177 215.156Z"/>
</svg>
