<?xml version="1.0" encoding="iso-8859-1"?>
<!-- Uploaded to: SVG Repo, www.svgrepo.com, Generator: SVG Repo Mixer Tools -->
<!DOCTYPE svg PUBLIC "-//W3C//DTD SVG 1.1//EN" "http://www.w3.org/Graphics/SVG/1.1/DTD/svg11.dtd">
<svg fill="#000000" height="800px" width="800px" version="1.1" id="Capa_1" xmlns="http://www.w3.org/2000/svg" xmlns:xlink="http://www.w3.org/1999/xlink" 
	 viewBox="0 0 47.707 47.707" xml:space="preserve">
<path d="M45.146,45.707h-24c-9.925,0-18-8.075-18-18s8.075-18,18-18h21.586L36.439,16l1.414,1.414l7.999-7.999
	c0.001-0.001,0.001-0.001,0.002-0.002l0.706-0.706l-0.706-0.706C45.854,8,45.853,8,45.853,7.999L37.854,0l-1.414,1.414l6.293,6.293
	H21.146c-11.028,0-20,8.972-20,20s8.972,20,20,20h24c0.552,0,1-0.447,1-1S45.699,45.707,45.146,45.707z"/>
</svg>